HIERARCHY
ROOT SimulationBone
{
	OFFSET 0.000000 0.000000 0.000000
	CHANNELS 6 Xposition Yposition Zposition Zrotation Yrotation Xrotation 
	JOINT Hips
	{
		OFFSET 0.000000 0.000000 0.000000
		CHANNELS 6 Xposition Yposition Zposition Zrotation Yrotation Xrotation 
		JOINT LeftUpLeg
		{
			OFFSET 0.103460 1.857825 10.548519
			CHANNELS 3 Zrotation Yrotation Xrotation
			JOINT LeftLeg
			{
				OFFSET 43.500008 -0.000019 0.000016
				CHANNELS 3 Zrotation Yrotation Xrotation
				JOINT LeftFoot
				{
					OFFSET 42.372192 0.000004 0.000011
					CHANNELS 3 Zrotation Yrotation Xrotation
					JOINT LeftToe
					{
						OFFSET 17.300001 0.000001 -0.000016
						CHANNELS 3 Zrotation Yrotation Xrotation
						End Site
						{
							OFFSET 0.000000 0.000000 0.000000
						}
					}
				}
			}
		}
		JOINT RightUpLeg
		{
			OFFSET 0.103460 1.857824 -10.548484
			CHANNELS 3 Zrotation Yrotation Xrotation
			JOINT RightLeg
			{
				OFFSET 43.500046 -0.000008 0.000031
				CHANNELS 3 Zrotation Yrotation Xrotation
				JOINT RightFoot
				{
					OFFSET 42.372261 0.000000 0.000010
					CHANNELS 3 Zrotation Yrotation Xrotation
					JOINT RightToe
					{
						OFFSET 17.299986 -0.000007 0.000010
						CHANNELS 3 Zrotation Yrotation Xrotation
						End Site
						{
							OFFSET 0.000000 0.000000 0.000000
						}
					}
				}
			}
		}
		JOINT Spine
		{
			OFFSET 6.901969 -2.603749 -0.000000
			CHANNELS 3 Zrotation Yrotation Xrotation
			JOINT Spine1
			{
				OFFSET 12.588099 0.000014 -0.000003
				CHANNELS 3 Zrotation Yrotation Xrotation
				JOINT Spine2
				{
					OFFSET 12.343207 0.000019 0.000011
					CHANNELS 3 Zrotation Yrotation Xrotation
					JOINT Neck
					{
						OFFSET 25.832890 -0.000025 -0.000002
						CHANNELS 3 Zrotation Yrotation Xrotation
						JOINT Head
						{
							OFFSET 11.766609 0.000013 -0.000004
							CHANNELS 3 Zrotation Yrotation Xrotation
							End Site
							{
								OFFSET 0.000000 0.000000 0.000000
							}
						}
					}
					JOINT LeftShoulder
					{
						OFFSET 19.745899 -1.480392 6.000105
						CHANNELS 3 Zrotation Yrotation Xrotation
						JOINT LeftArm
						{
							OFFSET 11.284097 -0.000017 -0.000023
							CHANNELS 3 Zrotation Yrotation Xrotation
							JOINT LeftForeArm
							{
								OFFSET 33.000065 -0.000020 0.000044
								CHANNELS 3 Zrotation Yrotation Xrotation
								JOINT LeftHand
								{
									OFFSET 25.200005 0.000023 0.000007
									CHANNELS 3 Zrotation Yrotation Xrotation
									End Site
									{
										OFFSET 0.000000 0.000000 0.000000
									}
								}
							}
						}
					}
					JOINT RightShoulder
					{
						OFFSET 19.746096 -1.480391 -6.000090
						CHANNELS 3 Zrotation Yrotation Xrotation
						JOINT RightArm
						{
							OFFSET 11.284126 -0.000026 -0.000012
							CHANNELS 3 Zrotation Yrotation Xrotation
							JOINT RightForeArm
							{
								OFFSET 33.000092 0.000010 0.000014
								CHANNELS 3 Zrotation Yrotation Xrotation
								JOINT RightHand
								{
									OFFSET 25.199760 0.000151 0.000418
									CHANNELS 3 Zrotation Yrotation Xrotation
									End Site
									{
										OFFSET 0.000000 0.000000 0.000000
									}
								}
							}
						}
					}
				}
			}
		}
	}
}
MOTION
Frames: 11
Frame Time: 0.016667
254.804408 0.000000 215.696279 180.000000 84.112950 180.000000 0.854091 72.295598 0.379970 95.593282 2.905929 -175.933345 -173.245777 0.343844 165.539358 -65.999071 1.392670 2.222430 110.869793 -1.853938 18.476830 21.454553 0.003094 -0.000000 135.935619 2.279025 175.614453 -20.282877 -2.653636 1.259093 75.453485 2.624469 12.219579 21.454560 -0.003112 -0.000019 8.149931 1.965352 -2.674023 6.197708 4.070392 -5.242522 5.880198 4.038838 -5.266945 13.167462 6.487657 -0.482018 -22.724927 -17.208076 7.446195 -128.886953 -87.583866 -52.958793 16.086986 62.328244 46.853116 -95.352053 -2.493993 2.717327 -1.582244 3.213596 45.671305 -155.184381 77.363079 26.765513 39.270696 -50.030737 -32.649204 -88.163510 3.331400 -2.498223 -13.678868 3.986195 -29.840427 
254.715274 0.000000 213.160060 180.000000 82.979600 180.000000 1.451384 71.930794 0.524953 96.468490 3.241467 -175.772368 -169.956635 -1.501502 164.735666 -65.508528 1.041516 2.989402 108.071296 -1.902295 18.490862 21.454553 0.003099 0.000001 136.308595 2.556199 178.243854 -23.097529 -3.261669 2.469313 72.504492 1.813092 11.339291 21.454563 -0.003107 -0.000019 7.967217 1.997226 -2.657669 5.831402 4.125071 -5.215042 5.513860 4.093677 -5.239799 14.369320 6.741071 -1.121491 -22.684817 -17.109547 6.666064 -124.832157 -88.063931 -56.994834 17.433160 62.028846 48.461252 -95.625967 -2.429432 2.725056 -1.581363 3.117159 45.530129 -153.875035 77.285047 28.103003 40.611959 -49.447447 -33.780154 -88.074564 3.332122 -2.494120 -13.740204 4.448236 -29.833108 
254.576848 0.000000 210.710068 180.000000 81.914992 180.000000 1.948827 71.768160 0.735624 97.249674 4.171446 -175.734875 -167.310131 -3.973082 163.478792 -65.531994 1.094458 4.170958 104.398855 -2.161658 16.815783 21.454551 0.003103 -0.000000 136.484491 2.281971 -178.498883 -25.764618 -4.659520 3.546343 64.238470 2.509525 12.798087 21.454560 -0.003103 -0.000017 7.760605 2.148870 -2.598336 5.414065 4.416115 -5.097538 5.096320 4.385420 -5.124059 15.493332 6.668386 -1.654322 -22.388098 -16.622052 5.760041 -130.110998 -88.348199 -51.687518 18.831125 61.498196 49.840501 -95.906537 -2.335177 2.730985 -1.958679 2.909631 45.141862 -153.005161 77.360393 28.987970 41.642991 -49.049900 -34.633640 -87.839551 3.352768 -2.485381 -13.577964 4.662135 -29.895672 
254.387792 0.000000 208.363315 180.000000 80.935796 180.000000 2.432514 71.579567 1.006594 97.900227 5.414647 -175.896624 -165.421021 -6.837913 161.784328 -66.509642 1.466342 5.569816 99.586582 -2.640487 13.925252 21.454550 0.003104 -0.000003 135.900041 1.744508 -176.035080 -29.667018 -5.663993 4.245471 56.435257 3.561828 13.934799 21.454557 -0.003101 -0.000016 7.553289 2.369498 -2.484530 4.995173 4.843149 -4.869401 4.677092 4.813819 -4.898517 16.284257 6.579314 -2.134671 -21.678933 -16.090727 4.848773 -136.703365 -88.492297 -45.073972 20.141675 61.007193 51.001007 -96.176658 -2.241401 2.736418 -2.414962 2.692575 44.498524 -152.478999 77.297635 29.525877 41.746638 -48.576298 -34.904205 -87.430498 3.385134 -2.469244 -13.302050 4.676590 -29.817794 
254.146467 0.000000 206.132502 180.000000 80.063375 180.000000 2.992138 71.147316 1.321321 98.431295 6.627862 -176.333451 -164.328156 -9.833057 159.860627 -68.825972 1.931899 6.936590 93.499235 -3.322656 10.531318 21.454550 0.003101 -0.000004 134.222848 1.278873 -175.524360 -36.046730 -5.127535 4.403524 54.898729 3.053639 12.688837 21.454556 -0.003101 -0.000016 7.379856 2.599818 -2.311722 4.647277 5.289501 -4.522707 4.328790 5.262254 -4.554550 16.554987 6.739766 -2.602449 -20.533684 -15.852358 4.063769 -133.430057 -88.611604 -48.347448 21.324272 60.805254 52.009960 -96.398931 -2.186526 2.742575 -2.653431 2.521914 43.716880 -152.462229 76.858687 29.554762 40.388415 -47.764553 -34.333279 -86.811404 3.442387 -2.444804 -13.057972 4.621432 -29.454437 
253.854061 0.000000 204.028320 180.000000 79.313415 180.000000 3.604622 70.570213 1.608159 99.004424 7.679580 -176.958528 -163.831185 -12.701901 158.353155 -72.341750 2.211670 8.084589 86.969570 -4.305412 6.745273 21.454553 0.003096 -0.000003 132.400279 1.016196 -176.147655 -43.332816 -3.560904 4.329244 57.777273 1.899334 10.975340 21.454558 -0.003099 -0.000017 7.306101 2.847516 -2.130880 4.500157 5.774891 -4.155509 4.181223 5.749853 -4.190327 16.406770 6.743194 -2.978177 -19.377872 -15.667957 3.421906 -135.368638 -88.434351 -46.413919 22.375977 60.630535 52.604616 -96.489057 -2.192419 2.746894 -2.786316 2.162534 43.173324 -154.079121 76.380115 27.916004 37.828343 -46.772882 -32.939672 -85.874472 3.637898 -2.417998 -13.055907 4.729769 -29.052239 
253.512386 0.000000 202.058192 180.000000 78.690177 180.000000 4.205840 70.018409 1.787322 99.743925 8.473552 -177.679669 -163.858063 -15.119666 157.784618 -76.779060 2.136130 8.748075 81.073570 -5.500191 2.627636 21.454558 0.003093 0.000001 131.398955 1.056340 -176.713366 -49.632685 -1.849616 4.382324 61.746519 1.375905 10.889485 21.454558 -0.003094 -0.000017 7.377311 3.110910 -1.984631 4.642753 6.298114 -3.849504 4.323347 6.274917 -3.887532 16.004114 6.215038 -3.193520 -18.627093 -15.284362 2.918301 -148.243070 -87.683588 -33.534249 23.213403 60.272128 52.527258 -96.335682 -2.274173 2.745323 -2.978399 1.400317 43.148478 -158.070432 76.213187 23.840459 34.498701 -45.858634 -30.871456 -84.512950 4.059435 -2.388703 -13.404619 5.218013 -28.808557 
253.117808 0.000000 200.225947 180.000000 78.187199 180.000000 4.674955 69.630920 1.818128 100.457661 8.819354 -178.545261 -164.832436 -16.514209 157.765881 -81.788837 2.082943 8.120216 76.887500 -6.134049 -1.333802 21.454560 0.003092 0.000005 131.083596 1.373087 -176.439714 -54.456988 -1.139810 4.015307 65.389689 1.527940 11.599803 21.454558 -0.003094 -0.000017 7.526433 3.286040 -1.828535 4.945961 6.646483 -3.521625 4.626178 6.625260 -3.561801 15.450941 5.569048 -3.352621 -18.161965 -14.930669 2.529068 -152.886481 -86.805775 -28.895962 23.539911 60.213969 52.024128 -95.766122 -2.436203 2.731760 -3.195760 0.407084 43.269152 -163.031014 76.367985 18.767100 30.780769 -45.336315 -28.586670 -82.697594 4.591751 -2.344871 -13.747840 6.119633 -28.326969 
252.662204 0.000000 198.533453 180.000000 77.795179 180.000000 4.909483 69.505414 1.697575 100.936248 8.594492 -179.557659 -167.084907 -16.536523 157.736263 -87.006959 2.287385 5.657922 75.225190 -5.393946 -4.511852 21.454552 0.003093 0.000006 131.115299 1.902844 -174.998506 -57.733080 -2.235619 2.841111 68.042984 2.222843 11.880759 21.454559 -0.003105 -0.000018 7.671128 3.287729 -1.620493 5.248262 6.644937 -3.096063 4.928332 6.626280 -3.136251 14.869650 5.248410 -3.580926 -17.777032 -14.821648 2.197233 -148.817694 -86.432737 -32.996248 23.128398 60.874090 51.374298 -94.692761 -2.668167 2.700909 -3.361659 -0.540591 43.171644 -167.536397 76.817097 14.160386 26.900250 -45.412644 -26.425306 -80.451754 5.112335 -2.281724 -13.691634 7.338170 -27.189661 
252.140595 0.000000 196.980951 180.000000 77.509917 180.000000 4.945023 69.605309 1.528441 101.193264 8.070479 179.642967 -170.303636 -16.007004 157.489054 -92.031368 2.506156 2.695439 76.168664 -3.661144 -5.831787 21.454545 0.003094 0.000004 131.381912 2.635598 -173.499099 -59.800026 -3.837639 1.576107 69.951067 3.034038 11.988048 21.454560 -0.003114 -0.000019 7.781289 3.207608 -1.410132 5.482796 6.477885 -2.671559 5.162858 6.461788 -2.710743 14.527114 5.032725 -3.881884 -17.479482 -14.651659 1.772985 -145.407232 -86.403521 -36.425996 22.292666 61.743863 50.516610 -93.430519 -2.912588 2.661165 -3.473726 -1.122319 43.195427 -171.735120 77.304165 9.874022 22.883465 -45.638097 -24.337105 -77.931972 5.674826 -2.213996 -13.217846 8.437027 -25.528136 
251.553444 0.000000 195.567004 180.000000 77.331854 180.000000 4.840201 69.863303 1.398117 101.278063 7.534087 179.360111 -174.112215 -15.756864 156.932919 -96.486516 2.695551 0.572566 79.419929 -1.681841 -4.582634 21.454546 0.003092 0.000002 131.801187 3.561681 -173.095987 -61.110395 -4.472172 0.864842 71.497796 3.535089 12.383377 21.454559 -0.003108 -0.000018 7.849675 3.151162 -1.244793 5.630098 6.358676 -2.338950 5.310155 6.344586 -2.377421 14.609422 4.644578 -4.228549 -17.280116 -14.108994 1.138181 -150.080299 -86.497537 -31.724791 21.422379 62.278426 49.401125 -92.359097 -3.115308 2.627532 -3.517007 -1.108744 43.800241 -175.886225 77.585765 5.641357 18.860555 -45.543585 -22.299761 -75.329378 6.340430 -2.152163 -12.366844 8.989310 -23.581161 
